<svg width="100" height="136" viewBox="0 0 100 136" fill="none" xmlns="http://www.w3.org/2000/svg">
<g clip-path="url(#clip0_2111_11)">
<path fill-rule="evenodd" clip-rule="evenodd" d="M17.6408 47.6484C16.4193 47.6484 15.4277 48.6452 15.4277 49.8716C15.4277 51.1044 16.42 52.094 17.6408 52.0947H70.3787C71.6009 52.0947 72.5911 51.1001 72.5911 49.8716C72.5911 48.6445 71.6017 47.6484 70.3787 47.6484H17.6408ZM70.3787 71.3622H17.6408C16.42 71.3622 15.4277 70.3682 15.4277 69.1397C15.4277 67.9112 16.42 66.9166 17.6408 66.9166H70.3787C71.6009 66.9166 72.5911 67.9198 72.5911 69.1397C72.5911 70.364 71.6017 71.3622 70.3787 71.3622ZM17.645 86.1755H40.4449C41.6686 86.1755 42.658 87.1701 42.658 88.3979C42.658 89.6314 41.6686 90.621 40.4449 90.621H17.645C16.4235 90.621 15.432 89.6314 15.432 88.3979C15.432 87.1779 16.4242 86.1755 17.645 86.1755ZM17.645 105.444H37.4937C38.7167 105.444 39.7061 106.438 39.7068 107.667C39.7068 108.891 38.7167 109.889 37.4937 109.889H17.645C16.4235 109.889 15.432 108.891 15.432 107.667C15.432 106.438 16.4242 105.444 17.645 105.444Z" fill="#3C83B7"/>
<path fill-rule="evenodd" clip-rule="evenodd" d="M53.5095 128.741C53.5052 128.741 53.4967 128.75 53.4882 128.75H2.21306C0.990127 128.75 0 127.747 0 126.527V22.548C0 21.3209 0.990127 20.3248 2.21306 20.3248H20.9013V14.2165C20.9013 12.9902 21.8928 11.9941 23.1143 11.9941H32.1837V11.8836C32.1837 5.32897 37.4935 0 44.017 0C50.5412 0 55.8481 5.32897 55.8481 11.8829V11.9934H64.9147C66.1341 11.9934 67.1278 12.9895 67.1278 14.2158V20.3241H85.811C87.0347 20.3241 88.0234 21.3202 88.0234 22.5472V85.0717C116 111.5 85 150.5 53.5095 128.741ZM62.6981 27.3279H25.3267V16.4425H34.7048C35.3876 16.4425 36.0342 16.1281 36.4487 15.5898C36.8654 15.0515 37.0144 14.3456 36.8505 13.6839C36.6844 13.0151 36.6042 12.429 36.6042 11.8864C36.6042 7.78383 39.928 4.44913 44.012 4.44913C48.096 4.44913 51.4199 7.78383 51.4199 11.8864C51.4199 12.429 51.3411 12.9937 51.1686 13.6754C51.0004 14.3377 51.1452 15.0422 51.5668 15.5855C51.9884 16.1288 52.6386 16.4432 53.315 16.4432H62.6981V27.3279ZM49.5532 124.295H4.42612L4.42186 24.7661H20.897V29.5418C20.897 30.7681 21.8893 31.7642 23.1101 31.7642H64.9069C66.1256 31.7642 67.1193 30.7681 67.1193 29.5418V24.7661H83.5902V82.5506V85.0717C115.5 110.5 81 149.5 53.5095 124.295H49.5532Z" fill="#3C83B7"/>
<path fill-rule="evenodd" clip-rule="evenodd" d="M99.687 107.977C99.687 123.403 87.2057 135.946 71.8456 135.946C64.667 135.946 58.1407 133.186 53.1965 128.687C51.5691 127.094 50.6093 126.111 49.2402 124.241C45.9575 119.656 44 114.047 44 107.977C44 92.556 56.4905 80 71.8414 80C75.9169 80 79.7816 80.9119 83.2772 82.4969C85.0798 83.3807 86.0181 83.9444 87.7104 85.0181C94.9422 90.0768 99.687 98.4781 99.687 107.977ZM71.8463 84.4463C84.7556 84.4463 95.2623 95.0058 95.2623 107.977C95.2623 120.951 84.7556 131.501 71.8463 131.501C58.9371 131.501 48.4304 120.951 48.4304 107.977C48.4304 95.0051 58.9371 84.4463 71.8463 84.4463Z" fill="#3C83B7"/>
<path d="M84.0506 98.7119L70.4969 111.768L61.326 104.405C60.3706 103.641 58.983 103.796 58.2143 104.752C57.4535 105.716 57.6089 107.105 58.5593 107.878L69.2434 116.465C69.6494 116.787 70.1385 116.943 70.6261 116.943C71.179 116.943 71.7333 116.735 72.1563 116.322L87.1055 101.921C87.982 101.079 88.0168 99.6595 87.1701 98.7782C86.324 97.8834 84.9279 97.8656 84.0506 98.7119Z" fill="#3C83B7"/>
</g>
<defs>
<clipPath id="clip0_2111_11">
<rect width="100" height="136" fill="white"/>
</clipPath>
</defs>
</svg>
