<svg width="100" height="136" viewBox="0 0 100 136" fill="none" xmlns="http://www.w3.org/2000/svg">
<path fill-rule="evenodd" clip-rule="evenodd" d="M17.6406 47.6484C16.4191 47.6484 15.4275 48.6452 15.4275 49.8716C15.4275 51.1044 16.4198 52.094 17.6406 52.0947H70.3785C71.6007 52.0947 72.5909 51.1001 72.5909 49.8716C72.5909 48.6445 71.6015 47.6484 70.3785 47.6484H17.6406ZM70.3785 71.3622H17.6406C16.4198 71.3622 15.4275 70.3682 15.4275 69.1397C15.4275 67.9112 16.4198 66.9166 17.6406 66.9166H70.3785C71.6007 66.9166 72.5909 67.9198 72.5909 69.1397C72.5909 70.364 71.6015 71.3622 70.3785 71.3622ZM17.6448 86.1755H40.4447C41.6684 86.1755 42.6578 87.1701 42.6578 88.3979C42.6578 89.6314 41.6684 90.621 40.4447 90.621H17.6448C16.4233 90.621 15.4318 89.6314 15.4318 88.3979C15.4318 87.1779 16.424 86.1755 17.6448 86.1755ZM17.6448 105.444H37.4935C38.7165 105.444 39.7059 106.438 39.7066 107.667C39.7066 108.891 38.7165 109.889 37.4935 109.889H17.6448C16.4233 109.889 15.4318 108.891 15.4318 107.667C15.4318 106.438 16.424 105.444 17.6448 105.444Z" fill="#3C83B7"/>
<path fill-rule="evenodd" clip-rule="evenodd" d="M53.4882 128.75H2.21306C0.990127 128.75 0 127.747 0 126.527V22.548C0 21.3209 0.990127 20.3248 2.21306 20.3248H20.9013V14.2165C20.9013 12.9902 21.8928 11.9941 23.1143 11.9941H32.1837V11.8836C32.1837 5.32897 37.4935 0 44.017 0C50.5412 0 55.8481 5.32897 55.8481 11.8829V11.9934H64.9147C66.1341 11.9934 67.1278 12.9895 67.1278 14.2158V20.3241H85.811C87.0347 20.3241 88.0234 21.3202 88.0234 22.5472V85.0717V86L83.5902 85.0717V82.5506V24.7661H67.1193V29.5418C67.1193 30.7681 66.1256 31.7642 64.9069 31.7642H23.1101C21.8893 31.7642 20.897 30.7681 20.897 29.5418V24.7661H4.42186L4.42612 124.295H49.5532H53.5095L54.5 128.741L53.4882 128.75ZM62.6981 27.3279H25.3267V16.4425H34.7048C35.3876 16.4425 36.0342 16.1281 36.4487 15.5898C36.8654 15.0515 37.0144 14.3456 36.8505 13.6839C36.6844 13.0151 36.6042 12.429 36.6042 11.8864C36.6042 7.78383 39.928 4.44913 44.012 4.44913C48.096 4.44913 51.4199 7.78383 51.4199 11.8864C51.4199 12.429 51.3411 12.9937 51.1686 13.6754C51.0004 14.3377 51.1452 15.0422 51.5668 15.5855C51.9884 16.1288 52.6386 16.4432 53.315 16.4432H62.6981V27.3279Z" fill="#3C83B7"/>
<path fill-rule="evenodd" clip-rule="evenodd" d="M99.687 107.977C99.687 123.403 87.2057 135.946 71.8456 135.946C64.667 135.946 58.1407 133.186 53.1965 128.687C51.5691 127.094 50.6093 126.111 49.2402 124.241C45.9575 119.656 44 114.047 44 107.977C44 92.556 56.4905 80 71.8414 80C75.9169 80 79.7816 80.9119 83.2772 82.4969C85.0798 83.3807 86.0181 83.9444 87.7104 85.0181C94.9422 90.0768 99.687 98.4781 99.687 107.977ZM71.8463 84.4463C84.7556 84.4463 95.2623 95.0058 95.2623 107.977C95.2623 120.951 84.7556 131.501 71.8463 131.501C58.9371 131.501 48.4304 120.951 48.4304 107.977C48.4304 95.0051 58.9371 84.4463 71.8463 84.4463Z" fill="#3C83B7"/>
<path d="M84.0508 98.712L70.4971 111.768L61.3262 104.405C60.3708 103.641 58.9832 103.796 58.2145 104.752C57.4537 105.716 57.6091 107.105 58.5595 107.878L69.2436 116.465C69.6496 116.787 70.1387 116.943 70.6263 116.943C71.1792 116.943 71.7335 116.735 72.1565 116.322L87.1057 101.921C87.9822 101.079 88.017 99.6596 87.1703 98.7783C86.3242 97.8835 84.9281 97.8657 84.0508 98.712Z" fill="#3C83B7"/>
</svg>
